<?xml version="1.0" encoding="UTF-8" standalone="no"?>
<!-- Generator: Adobe Illustrator 15.1.0, SVG Export Plug-In . SVG Version: 6.00 Build 0)  -->

<svg
   xmlns:dc="http://purl.org/dc/elements/1.1/"
   xmlns:cc="http://creativecommons.org/ns#"
   xmlns:rdf="http://www.w3.org/1999/02/22-rdf-syntax-ns#"
   xmlns:svg="http://www.w3.org/2000/svg"
   xmlns="http://www.w3.org/2000/svg"
   xmlns:sodipodi="http://sodipodi.sourceforge.net/DTD/sodipodi-0.dtd"
   xmlns:inkscape="http://www.inkscape.org/namespaces/inkscape"
   version="1.1"
   id="Lager_1"
   x="0px"
   y="0px"
   width="376.29938"
   height="40"
   viewBox="0 0 376.29937 40.000002"
   enable-background="new 0 0 1133.858 283.464"
   xml:space="preserve"
   inkscape:version="0.47 r22583"
   sodipodi:docname="shb-large-logo.svg"><metadata
   id="metadata2886"><rdf:RDF><cc:Work
       rdf:about=""><dc:format>image/svg+xml</dc:format><dc:type
         rdf:resource="http://purl.org/dc/dcmitype/StillImage" /><dc:title /></cc:Work></rdf:RDF></metadata><defs
   id="defs2884"><inkscape:perspective
     sodipodi:type="inkscape:persp3d"
     inkscape:vp_x="0 : 141.73199 : 1"
     inkscape:vp_y="0 : 1000 : 0"
     inkscape:vp_z="1133.858 : 141.73199 : 1"
     inkscape:persp3d-origin="566.92902 : 94.487996 : 1"
     id="perspective2888" /></defs><sodipodi:namedview
   pagecolor="#ffffff"
   bordercolor="#666666"
   borderopacity="1"
   objecttolerance="10"
   gridtolerance="10"
   guidetolerance="10"
   inkscape:pageopacity="0"
   inkscape:pageshadow="2"
   inkscape:window-width="1200"
   inkscape:window-height="1834"
   id="namedview2882"
   showgrid="false"
   inkscape:zoom="0.9525002"
   inkscape:cx="529.5933"
   inkscape:cy="-261.30617"
   inkscape:window-x="-4"
   inkscape:window-y="-4"
   inkscape:window-maximized="1"
   inkscape:current-layer="Lager_1" />
<g
   id="g2854"
   transform="matrix(0.39431402,0,0,0.39431402,-35.373165,-33.345165)">
	<path
   d="m 111.6,84.604 v 38.207 h 40.272 V 84.604 h 21.892 v 99.545 H 151.872 V 141.192 H 111.6 v 42.957 H 89.708 V 84.604 H 111.6 z"
   id="path2856"
   style="fill:#005fa0" />
	<path
   d="m 188.042,122.65 c 2.042,-3.072 4.644,-5.541 7.801,-7.403 3.156,-1.862 6.709,-3.188 10.655,-3.982 3.947,-0.791 7.916,-1.188 11.911,-1.188 3.621,0 7.29,0.258 11.004,0.768 3.714,0.513 7.103,1.513 10.168,3.001 3.064,1.488 5.571,3.556 7.522,6.209 1.949,2.649 2.925,6.16 2.925,10.533 v 37.529 l 0.02,9.35 c 0.162,3.672 0.168,3.836 0.82,6.684 l -19.021,-0.003 c -0.413,-1.601 -0.387,-1.652 -0.568,-2.892 -0.168,-1.152 -0.158,-2.867 -0.252,-4.067 -3.156,3.257 -6.87,5.534 -11.141,6.835 -4.271,1.301 -8.634,1.952 -13.09,1.952 -3.436,0 -6.638,-0.419 -9.608,-1.255 -2.972,-0.836 -5.572,-2.14 -7.8,-3.908 -2.229,-1.769 -3.969,-4.002 -5.221,-6.703 -1.254,-2.697 -1.88,-5.908 -1.88,-9.632 0,-4.095 0.72,-7.468 2.159,-10.12 1.439,-2.652 3.297,-4.77 5.572,-6.354 2.275,-1.582 4.874,-2.77 7.799,-3.56 2.925,-0.79 5.873,-1.417 8.845,-1.884 2.97,-0.465 5.896,-0.836 8.774,-1.117 2.879,-0.277 5.433,-0.697 7.661,-1.255 2.228,-0.558 3.993,-1.372 5.294,-2.443 1.3,-1.071 1.904,-2.63 1.811,-4.679 0,-2.139 -0.347,-3.837 -1.041,-5.095 -0.694,-1.255 -1.62,-2.233 -2.777,-2.93 -1.157,-0.697 -2.5,-1.162 -4.026,-1.394 -1.526,-0.232 -3.168,-0.352 -4.926,-0.352 -3.887,0 -6.941,0.842 -9.161,2.527 -2.22,1.684 -3.516,4.492 -3.886,8.419 h -19.826 c 0.279,-4.653 1.441,-8.519 3.483,-11.591 z m 39.032,27.977 c -1.252,0.42 -2.596,0.769 -4.032,1.046 -1.438,0.277 -2.944,0.51 -4.519,0.697 -1.577,0.187 -3.153,0.419 -4.728,0.696 -1.485,0.277 -2.945,0.648 -4.381,1.113 -1.436,0.465 -2.688,1.094 -3.754,1.885 -1.066,0.791 -1.923,1.788 -2.572,2.995 -0.648,1.21 -0.973,2.743 -0.973,4.602 0,1.765 0.324,3.253 0.973,4.46 0.649,1.21 1.528,2.162 2.642,2.859 1.113,0.696 2.411,1.184 3.894,1.465 1.482,0.277 3.012,0.416 4.59,0.416 3.892,0 6.904,-0.648 9.037,-1.953 2.132,-1.3 3.708,-2.855 4.728,-4.669 1.02,-1.81 1.645,-3.646 1.877,-5.505 0.232,-1.859 0.349,-3.347 0.349,-4.463 v -7.387 c -0.838,0.743 -1.88,1.324 -3.131,1.743 z"
   id="path2858"
   style="fill:#005fa0" />
	<path
   d="m 680.504,122.65 c 2.043,-3.072 4.643,-5.541 7.801,-7.403 3.156,-1.862 6.709,-3.188 10.656,-3.982 3.945,-0.791 7.914,-1.188 11.91,-1.188 3.621,0 7.289,0.258 11.004,0.768 3.715,0.513 7.102,1.513 10.168,3.001 3.064,1.488 5.572,3.556 7.521,6.209 1.949,2.649 2.926,6.16 2.926,10.533 v 37.529 l 0.02,9.35 c 0.162,3.672 0.168,3.836 0.82,6.684 l -19.02,-0.003 c -0.414,-1.601 -0.389,-1.652 -0.568,-2.892 -0.168,-1.152 -0.158,-2.867 -0.252,-4.067 -3.156,3.257 -6.871,5.534 -11.141,6.835 -4.271,1.301 -8.635,1.952 -13.092,1.952 -3.434,0 -6.637,-0.419 -9.607,-1.255 -2.973,-0.836 -5.572,-2.14 -7.799,-3.908 -2.229,-1.769 -3.971,-4.002 -5.223,-6.703 -1.254,-2.697 -1.879,-5.908 -1.879,-9.632 0,-4.095 0.719,-7.468 2.158,-10.12 1.439,-2.652 3.297,-4.77 5.572,-6.354 2.275,-1.582 4.873,-2.77 7.799,-3.56 2.926,-0.79 5.873,-1.417 8.846,-1.884 2.971,-0.465 5.895,-0.836 8.773,-1.117 2.879,-0.277 5.434,-0.697 7.662,-1.255 2.227,-0.558 3.992,-1.372 5.293,-2.443 1.301,-1.071 1.904,-2.63 1.811,-4.679 0,-2.139 -0.348,-3.837 -1.041,-5.095 -0.693,-1.255 -1.619,-2.233 -2.777,-2.93 -1.156,-0.697 -2.498,-1.162 -4.025,-1.394 -1.525,-0.232 -3.168,-0.352 -4.926,-0.352 -3.887,0 -6.941,0.842 -9.16,2.527 -2.221,1.684 -3.518,4.492 -3.887,8.419 h -19.826 c 0.278,-4.653 1.44,-8.519 3.483,-11.591 z m 39.031,27.977 c -1.252,0.42 -2.596,0.769 -4.031,1.046 -1.438,0.277 -2.945,0.51 -4.52,0.697 -1.576,0.187 -3.152,0.419 -4.729,0.696 -1.484,0.277 -2.943,0.648 -4.381,1.113 -1.436,0.465 -2.688,1.094 -3.754,1.885 -1.066,0.791 -1.924,1.788 -2.572,2.995 -0.648,1.21 -0.973,2.743 -0.973,4.602 0,1.765 0.324,3.253 0.973,4.46 0.648,1.21 1.529,2.162 2.643,2.859 1.113,0.696 2.41,1.184 3.893,1.465 1.482,0.277 3.012,0.416 4.59,0.416 3.893,0 6.904,-0.648 9.037,-1.953 2.133,-1.3 3.709,-2.855 4.729,-4.669 1.02,-1.81 1.645,-3.646 1.877,-5.505 0.23,-1.859 0.348,-3.347 0.348,-4.463 v -7.387 c -0.837,0.743 -1.88,1.324 -3.13,1.743 z"
   id="path2860"
   style="fill:#005fa0" />
	<path
   d="m 279.431,112.046 v 8.284 h 0.416 c 2.875,-3.673 5.43,-5.897 9.461,-7.736 4.086,-1.864 8.403,-2.484 12.588,-2.484 5.302,0 9.652,0.723 13.05,2.162 3.395,1.442 6.07,3.44 8.022,5.996 1.956,2.556 3.327,5.67 4.118,9.342 0.791,3.672 1.188,7.738 1.188,12.201 v 44.338 h -19.827 v -40.73 c 0,-5.95 -0.933,-10.391 -2.794,-13.321 -1.865,-2.93 -5.173,-4.395 -9.923,-4.395 -5.402,0 -9.316,1.607 -11.737,4.814 -2.423,3.208 -3.633,8.484 -3.633,15.831 v 37.801 h -19.723 v -72.103 h 18.794 z"
   id="path2862"
   style="fill:#005fa0" />
	<path
   d="m 771.83,112.046 v 8.284 h 0.416 c 2.875,-3.673 5.43,-5.897 9.461,-7.736 4.086,-1.864 8.404,-2.484 12.588,-2.484 5.303,0 9.652,0.723 13.051,2.162 3.395,1.442 6.07,3.44 8.021,5.996 1.957,2.556 3.328,5.67 4.119,9.342 0.789,3.672 1.188,7.738 1.188,12.201 v 44.338 h -19.828 v -40.73 c 0,-5.95 -0.932,-10.391 -2.793,-13.321 -1.865,-2.93 -5.174,-4.395 -9.924,-4.395 -5.402,0 -9.316,1.607 -11.736,4.814 -2.424,3.208 -3.633,8.484 -3.633,15.831 v 37.801 h -19.725 v -72.103 h 18.795 z"
   id="path2864"
   style="fill:#005fa0" />
	<path
   d="m 995.178,112.046 v 8.284 h 0.416 c 2.875,-3.673 5.43,-5.897 9.461,-7.736 4.086,-1.864 8.404,-2.484 12.588,-2.484 5.303,0 9.652,0.723 13.051,2.162 3.395,1.442 6.07,3.44 8.021,5.996 1.957,2.556 3.328,5.67 4.119,9.342 0.789,3.672 1.188,7.738 1.188,12.201 v 44.338 h -19.828 v -40.73 c 0,-5.95 -0.932,-10.391 -2.793,-13.321 -1.865,-2.93 -5.174,-4.395 -9.924,-4.395 -5.402,0 -9.316,1.607 -11.736,4.814 -2.424,3.208 -3.633,8.484 -3.633,15.831 v 37.801 h -19.725 v -72.103 h 18.795 z"
   id="path2866"
   style="fill:#005fa0" />
	<path
   d="m 440.768,166.917 c 2.972,2.885 7.248,4.324 12.824,4.324 3.995,0 7.435,-1.003 10.317,-3.015 2.882,-2.01 4.646,-4.137 5.299,-6.383 h 17.425 c -2.788,8.662 -7.064,14.854 -12.827,18.578 -5.763,3.725 -12.734,5.586 -20.911,5.586 -5.67,0 -10.781,-0.906 -15.338,-2.721 -4.557,-1.813 -8.419,-4.392 -11.582,-7.741 -3.166,-3.35 -5.609,-7.348 -7.332,-11.997 -1.724,-4.65 -2.582,-9.77 -2.582,-15.352 0,-5.393 0.884,-10.417 2.653,-15.067 1.768,-4.65 4.279,-8.674 7.538,-12.069 3.259,-3.395 7.141,-6.066 11.653,-8.022 4.511,-1.953 9.506,-2.93 14.989,-2.93 6.134,0 11.479,1.188 16.031,3.559 4.554,2.375 8.297,5.563 11.224,9.565 2.927,4.002 5.041,8.561 6.341,13.679 1.301,5.118 1.769,10.468 1.397,16.05 h -52 c 0.279,6.421 1.905,11.075 4.881,13.956 z m 22.372,-38.02 c -2.369,-2.611 -5.97,-3.917 -10.801,-3.917 -3.163,0 -5.786,0.539 -7.877,1.61 -2.091,1.071 -3.766,2.401 -5.021,3.985 -1.256,1.584 -2.137,3.266 -2.646,5.038 -0.513,1.771 -0.813,3.356 -0.907,4.753 h 32.202 c -0.929,-5.034 -2.578,-8.858 -4.95,-11.469 z"
   id="path2868"
   style="fill:#005fa0" />
	<path
   d="m 515.203,84.604 v 99.545 H 495.376 V 84.604 h 19.827 z"
   id="path2870"
   style="fill:#005fa0" />
	<path
   d="m 543.25,166.297 c 0.884,1.53 2.023,2.779 3.421,3.75 1.394,0.972 3.001,1.691 4.814,2.152 1.813,0.465 3.698,0.694 5.654,0.694 1.394,0 2.859,-0.161 4.395,-0.487 1.536,-0.326 2.93,-0.836 4.186,-1.533 1.256,-0.697 2.304,-1.629 3.14,-2.791 0.84,-1.162 1.259,-2.627 1.259,-4.395 0,-2.977 -1.978,-5.209 -5.928,-6.697 -3.953,-1.486 -9.461,-2.979 -16.528,-4.465 -2.885,-0.652 -5.699,-1.418 -8.442,-2.301 -2.743,-0.885 -5.183,-2.047 -7.322,-3.489 -2.139,-1.442 -3.859,-3.256 -5.16,-5.444 -1.304,-2.185 -1.952,-4.86 -1.952,-8.022 0,-4.65 0.907,-8.461 2.72,-11.44 1.813,-2.975 4.208,-5.324 7.183,-7.044 2.975,-1.72 6.325,-2.93 10.045,-3.627 3.721,-0.697 7.532,-1.049 11.44,-1.049 3.905,0 7.696,0.375 11.369,1.117 3.672,0.745 6.951,2 9.836,3.769 2.881,1.768 5.275,4.118 7.184,7.047 1.906,2.93 3.045,6.628 3.42,11.095 h -18.793 c -0.281,-3.831 -1.724,-6.422 -4.332,-7.777 -2.607,-1.355 -5.679,-2.033 -9.216,-2.033 -1.116,0 -2.326,0.071 -3.63,0.209 -1.304,0.142 -2.491,0.445 -3.56,0.91 -1.071,0.465 -1.978,1.139 -2.724,2.023 -0.745,0.884 -1.116,2.072 -1.116,3.559 0,1.769 0.648,3.211 1.952,4.328 1.3,1.116 2.998,2.023 5.092,2.72 2.091,0.7 4.486,1.326 7.184,1.885 2.694,0.558 5.438,1.165 8.229,1.816 2.882,0.652 5.695,1.443 8.438,2.372 2.744,0.933 5.184,2.166 7.322,3.701 2.141,1.536 3.859,3.443 5.16,5.722 1.305,2.281 1.955,5.099 1.955,8.448 0,4.746 -0.955,8.723 -2.857,11.934 -1.908,3.211 -4.396,5.795 -7.465,7.748 -3.068,1.955 -6.58,3.33 -10.529,4.121 -3.953,0.787 -7.974,1.184 -12.065,1.184 -4.186,0 -8.277,-0.416 -12.275,-1.252 -3.999,-0.836 -7.555,-2.227 -10.668,-4.176 -3.118,-1.949 -5.673,-4.524 -7.674,-7.726 -1.998,-3.201 -3.091,-7.216 -3.275,-12.043 h 18.794 c -0.004,2.132 0.435,3.962 1.319,5.487 z"
   id="path2872"
   style="fill:#005fa0" />
	<path
   d="m 851.061,84.604 v 53.4 l 24.953,-25.932 h 23.42 l -27.184,26.49 30.25,45.587 h -23.977 l -19.795,-32.201 -7.668,7.39 V 184.15 H 831.234 V 84.604 h 19.827 z"
   id="path2874"
   style="fill:#005fa0" />
	<path
   d="m 922.068,166.917 c 2.975,2.885 7.252,4.324 12.828,4.324 3.994,0 7.432,-1.003 10.313,-3.015 2.883,-2.01 4.646,-4.137 5.299,-6.383 h 17.426 c -2.787,8.662 -7.064,14.854 -12.824,18.578 -5.764,3.725 -12.734,5.586 -20.91,5.586 -5.67,0 -10.785,-0.906 -15.342,-2.721 -4.557,-1.813 -8.416,-4.392 -11.582,-7.741 -3.164,-3.35 -5.607,-7.348 -7.328,-11.997 -1.723,-4.65 -2.584,-9.77 -2.584,-15.352 0,-5.393 0.883,-10.417 2.652,-15.067 1.768,-4.65 4.281,-8.674 7.541,-12.069 3.256,-3.395 7.141,-6.066 11.652,-8.022 4.508,-1.953 9.508,-2.93 14.99,-2.93 6.135,0 11.479,1.188 16.031,3.559 4.553,2.375 8.293,5.563 11.221,9.565 2.926,4.001 5.043,8.561 6.344,13.679 1.301,5.118 1.766,10.468 1.395,16.05 h -52 c 0.281,6.421 1.906,11.075 4.878,13.956 z m 22.377,-38.02 c -2.373,-2.611 -5.975,-3.917 -10.805,-3.917 -3.16,0 -5.785,0.539 -7.877,1.61 -2.092,1.071 -3.764,2.401 -5.018,3.985 -1.256,1.584 -2.141,3.266 -2.65,5.038 -0.51,1.771 -0.813,3.356 -0.906,4.753 h 32.205 c -0.929,-5.034 -2.581,-8.858 -4.949,-11.469 z"
   id="path2876"
   style="fill:#005fa0" />
	<path
   d="m 388.842,84.565 v 34.813 h -0.207 c -2.602,-3.277 -5.194,-5.196 -9.061,-6.902 -4.076,-1.798 -8.003,-2.404 -12.282,-2.404 -5.302,0 -9.949,1.049 -13.947,3.14 -3.998,2.094 -7.325,4.86 -9.975,8.303 -2.649,3.44 -4.65,7.416 -5.999,11.927 -1.349,4.511 -2.02,9.188 -2.02,14.021 0,5.025 0.671,9.861 2.02,14.512 1.346,4.65 3.343,8.768 5.993,12.347 2.646,3.582 6.015,6.419 10.104,8.513 4.089,2.092 8.826,3.116 14.215,3.137 3.5,0.014 8.323,-0.449 12.125,-2.017 3.824,-1.578 6.907,-3.508 9.757,-7.372 h 0.277 v 7.575 h 18.826 V 84.565 h -19.826 z m -17.381,86.885 c -13.067,0 -18.563,-12.135 -18.563,-23.438 0,-11.852 4.767,-23.369 18.578,-23.369 13.665,0 18.108,11.517 18.108,23.233 0,11.859 -4.16,23.574 -18.123,23.574 z"
   id="path2878"
   style="fill:#005fa0" />
	<path
   d="m 597.457,84.565 v 99.591 h 18.826 v -7.575 h 0.277 c 2.85,3.864 5.933,5.794 9.756,7.372 3.804,1.567 8.626,2.03 12.126,2.017 5.389,-0.021 10.126,-1.045 14.215,-3.137 4.089,-2.094 7.458,-4.931 10.104,-8.513 2.649,-3.579 4.647,-7.696 5.993,-12.347 1.348,-4.65 2.02,-9.486 2.02,-14.512 0,-4.833 -0.672,-9.51 -2.02,-14.021 -1.35,-4.511 -3.35,-8.487 -6,-11.927 -2.648,-3.443 -5.977,-6.209 -9.975,-8.303 -3.998,-2.091 -8.645,-3.14 -13.947,-3.14 -4.278,0 -8.205,0.606 -12.281,2.404 -3.867,1.707 -6.459,3.625 -9.062,6.902 h -0.206 V 84.565 h -19.826 z m 19.084,63.311 c 0,-11.716 4.442,-23.233 18.107,-23.233 13.811,0 18.578,11.517 18.578,23.369 0,11.303 -5.496,23.438 -18.563,23.438 -13.962,0 -18.122,-11.715 -18.122,-23.574 z"
   id="path2880"
   style="fill:#005fa0" />
</g>
</svg>