<?xml version="1.0" encoding="UTF-8" standalone="no"?>
<!-- Generator: Adobe Illustrator 20.1.0, SVG Export Plug-In . SVG Version: 6.00 Build 0)  -->

<svg
   xmlns:dc="http://purl.org/dc/elements/1.1/"
   xmlns:cc="http://creativecommons.org/ns#"
   xmlns:rdf="http://www.w3.org/1999/02/22-rdf-syntax-ns#"
   xmlns:svg="http://www.w3.org/2000/svg"
   xmlns="http://www.w3.org/2000/svg"
   xmlns:sodipodi="http://sodipodi.sourceforge.net/DTD/sodipodi-0.dtd"
   xmlns:inkscape="http://www.inkscape.org/namespaces/inkscape"
   version="1.1"
   id="Layer_1"
   x="0px"
   y="0px"
   width="57.799999"
   height="57.799999"
   viewBox="0 0 57.799999 57.8"
   xml:space="preserve"
   sodipodi:docname="logo_small.svg"
   inkscape:version="0.92.4 (5da689c313, 2019-01-14)"><metadata
   id="metadata3785"><rdf:RDF><cc:Work
       rdf:about=""><dc:format>image/svg+xml</dc:format><dc:type
         rdf:resource="http://purl.org/dc/dcmitype/StillImage" /><dc:title></dc:title></cc:Work></rdf:RDF></metadata><defs
   id="defs3783" /><sodipodi:namedview
   pagecolor="#ffffff"
   bordercolor="#666666"
   borderopacity="1"
   objecttolerance="10"
   gridtolerance="10"
   guidetolerance="10"
   inkscape:pageopacity="0"
   inkscape:pageshadow="2"
   inkscape:window-width="2560"
   inkscape:window-height="1386"
   id="namedview3781"
   showgrid="false"
   inkscape:zoom="13.858714"
   inkscape:cx="75.412904"
   inkscape:cy="23.077606"
   inkscape:window-x="0"
   inkscape:window-y="0"
   inkscape:window-maximized="1"
   inkscape:current-layer="Layer_1" />
<style
   type="text/css"
   id="style3769">
	.st0{fill:#E6E7E8;}
	.st1{fill:url(#SVGID_1_);}
</style>

<linearGradient
   id="SVGID_1_"
   gradientUnits="userSpaceOnUse"
   x1="26.700001"
   y1="-9.8501997"
   x2="26.700001"
   y2="43.166"
   gradientTransform="matrix(1,0,0,-1,2,60.000002)">
	<stop
   offset="0"
   style="stop-color:#FFF100"
   id="stop3773" />
	<stop
   offset="1"
   style="stop-color:#F05A28"
   id="stop3775" />
</linearGradient>
<path
   class="st1"
   d="m 55.1,25.500002 c -0.1,-1 -0.3,-2.1 -0.6,-3.3 -0.3,-1.2 -0.8,-2.6 -1.5,-4 -0.7,-1.4 -1.6,-2.9 -2.8,-4.3 -0.5,-0.6 -1,-1.1 -1.5,-1.6 0.8,-3.2000004 -1,-6.0000004 -1,-6.0000004 -3.1,-0.2 -5.1,1 -5.8,1.5 -0.1,-0.1 -0.2,-0.1 -0.4,-0.2 -0.5,-0.2 -1,-0.4 -1.6,-0.6 -0.6,-0.2 -1.1,-0.3 -1.7,-0.5 -0.6,-0.1 -1.2,-0.3 -1.8,-0.3 -0.1,0 -0.2,0 -0.3,0 C 34.8,1.8000016 30.9,1.5258789e-6 30.9,1.5258789e-6 26.6,2.8000016 25.7,6.6000016 25.7,6.6000016 c 0,0 0,0.1 0,0.2 -0.2,0.1 -0.5,0.1 -0.7,0.2 -0.3,0.1 -0.7,0.2 -1,0.3 -0.3,0.1 -0.7,0.3 -1,0.4 -0.7,0.3 -1.3,0.6 -1.9,1 -0.6,0.3 -1.2,0.7 -1.8,1.1 -0.1,0 -0.2,-0.1 -0.2,-0.1 -6,-2.3 -11.4,0.5000004 -11.4,0.5000004 -0.5,6.4 2.4,10.4 3,11.2 -0.1,0.4 -0.3,0.8 -0.4,1.2 -0.4,1.4 -0.8,2.9 -1,4.5 0,0.2 -0.1,0.4 -0.1,0.7 -5.6,2.7 -7.2,8.4 -7.2,8.4 4.6,5.3 10,5.7 10,5.7 v 0 c 0.7,1.2 1.5,2.4 2.4,3.5 0.4,0.5 0.8,0.9 1.2,1.3 -1.7,4.8 0.2,8.9 0.2,8.9 5.2,0.2 8.6,-2.3 9.3,-2.8 0.5,0.2 1,0.3 1.6,0.5 1.6,0.4 3.2,0.6 4.8,0.7 0.4,0 0.8,0 1.2,0 h 0.2 0.1 0.3 0.3 v 0 c 2.4,3.5 6.7,4 6.7,4 3.4,-3.6 3.2,-7.2 3.2,-7.2 l -0.1,-0.1 c 0.7,-0.5 1.3,-1 1.9,-1.5 1.2,-1.1 2.3,-2.4 3.2,-3.7 0.1,-0.1 0.2,-0.3 0.2,-0.4 3.4,0.2 5.9,-2.1 5.9,-2.1 -0.6,-4 -3.1,-5.7 -3.1,-5.7 h -0.1 c 0,-0.2 0,-0.5 0.1,-0.7 0,-0.4 0,-0.8 0,-1.2 v -0.3 -0.1 -0.1 c 0,-0.1 0,-0.1 0,-0.1 v -0.2 -0.3 c 0,-0.1 0,-0.2 0,-0.3 0,-0.1 0,-0.2 0,-0.3 v -0.3 -0.3 c -0.1,-0.4 -0.1,-0.8 -0.2,-1.2 -0.4,-1.5 -1,-3 -1.8,-4.3 -0.8,-1.3 -1.8,-2.5 -2.9,-3.5 -1.1,-1 -2.4,-1.8 -3.7,-2.4 -1.3,-0.6 -2.7,-1 -4.1,-1.1 -0.7,-0.1 -1.4,-0.1 -2,-0.1 h -0.3 -0.1 -0.1 -0.1 -0.3 c -0.1,0 -0.2,0 -0.3,0 -0.3,0 -0.7,0.1 -1,0.1 -1.4,0.3 -2.7,0.7 -3.8,1.4 -1.1,0.7 -2.1,1.5 -2.9,2.5 -0.8,1 -1.4,2 -1.9,3.1 -0.4,1.1 -0.7,2.2 -0.7,3.3 0,0.3 0,0.6 0,0.8 0,0.1 0,0.1 0,0.2 v 0.2 c 0,0.1 0,0.3 0,0.4 0.1,0.6 0.2,1.1 0.3,1.6 0.3,1 0.8,2 1.4,2.8 0.6,0.8 1.3,1.5 2.1,2 0.8,0.5 1.6,0.9 2.4,1.1 0.8,0.2 1.6,0.3 2.3,0.3 0.1,0 0.2,0 0.3,0 h 0.1 0.1 c 0.1,0 0.2,0 0.2,0 0,0 0,0 0.1,0 h 0.1 0.1 c 0.1,0 0.2,0 0.3,0 0.1,0 0.2,0 0.3,-0.1 0.2,0 0.3,-0.1 0.5,-0.1 0.3,-0.1 0.6,-0.2 0.9,-0.4 0.3,-0.1 0.5,-0.3 0.8,-0.5 0.1,-0.1 0.1,-0.1 0.2,-0.2 0.3,-0.2 0.3,-0.6 0.1,-0.8 -0.2,-0.2 -0.5,-0.3 -0.7,-0.1 -0.2,-0.2 -0.2,-0.1 -0.3,-0.1 -0.2,0.1 -0.4,0.2 -0.7,0.3 -0.2,0.1 -0.5,0.1 -0.8,0.2 -0.1,0 -0.3,0 -0.4,0 -0.1,0 -0.1,0 -0.2,0 -0.1,0 -0.1,0 -0.2,0 -0.1,0 -0.1,0 -0.2,0 -0.1,0 -0.2,0 -0.2,0 v 0 0 H 34.1 34 c -0.1,0 -0.1,0 -0.2,0 -0.6,-0.1 -1.2,-0.3 -1.7,-0.5 -0.6,-0.3 -1.1,-0.6 -1.6,-1.1 -0.5,-0.4 -0.9,-1 -1.3,-1.6 -0.3,-0.6 -0.6,-1.3 -0.7,-2 -0.1,-0.3 -0.1,-0.7 -0.1,-1.1 0,-0.1 0,-0.2 0,-0.3 v 0 0 -0.1 -0.1 c 0,-0.2 0,-0.4 0.1,-0.6 0.3,-1.5 1,-3 2.2,-4.2 0.3,-0.3 0.6,-0.5 1,-0.8 0.3,-0.2 0.7,-0.4 1.1,-0.6 0.4,-0.2 0.8,-0.3 1.2,-0.4 0.4,-0.1 0.8,-0.2 1.2,-0.2 0.2,0 0.4,0 0.6,0 0.1,0 0.1,0 0.1,0 h 0.2 0.1 v 0 0 h 0.2 c 0.5,0 0.9,0.1 1.4,0.2 0.9,0.2 1.8,0.5 2.6,1 1.6,0.9 3,2.3 3.9,4 0.4,0.8 0.7,1.8 0.9,2.7 0,0.2 0.1,0.5 0.1,0.7 v 0.2 0.2 c 0,0.1 0,0.1 0,0.2 0,0.1 0,0.1 0,0.2 v 0.2 0.2 c 0,0.1 0,0.3 0,0.4 0,0.3 0,0.5 -0.1,0.8 0,0.3 -0.1,0.5 -0.1,0.8 -0.1,0.1 -0.1,0.3 -0.2,0.6 -0.1,0.5 -0.3,1 -0.5,1.5 -0.4,1 -0.9,1.9 -1.5,2.7 -1.2,1.7 -2.9,3.1 -4.8,3.9 -1,0.4 -2,0.7 -3,0.9 -0.5,0.1 -1,0.1 -1.6,0.2 h -0.1 -0.1 -0.2 -0.3 -0.1 c 0.1,0 0,0 0,0 h -0.1 c -0.3,0 -0.6,0 -0.8,0 -1.1,-0.1 -2.2,-0.3 -3.3,-0.6 -1.1,-0.3 -2.1,-0.7 -3.1,-1.2 -2,-1 -3.7,-2.5 -5.1,-4.2 -0.7,-0.9 -1.3,-1.8 -1.8,-2.8 -0.5,-1 -0.9,-2 -1.2,-3 -0.3,-1 -0.5,-2.1 -0.5,-3.2 v -0.2 -0.1 0 -0.1 -0.2 0 -0.1 -0.1 -0.3 0 0 -0.1 c 0,-0.1 0,-0.3 0,-0.4 0,-0.5 0.1,-1.1 0.1,-1.6 0.1,-0.5 0.2,-1.1 0.3,-1.6 0.1,-0.5 0.2,-1.1 0.4,-1.6 0.3,-1.1 0.7,-2.1 1.1,-3.1 0.9,-2 2.1,-3.7 3.5,-5.1 0.4,-0.3 0.7,-0.7 1.1,-1 0.4,-0.3 0.8,-0.6 1.2,-0.9 0.4,-0.3 0.8,-0.5 1.3,-0.7 0.2,-0.1 0.4,-0.2 0.7,-0.3 0.1,0 0.2,-0.1 0.3,-0.1 0.1,-0.1 0.2,-0.1 0.3,-0.1 0.4,-0.2 0.9,-0.4 1.4,-0.5 0.1,0 0.2,-0.1 0.4,-0.1 0.1,0 0.2,-0.1 0.4,-0.1 0.2,-0.1 0.5,-0.1 0.7,-0.2 0.1,0 0.2,-0.1 0.4,-0.1 0.1,0 0.2,-0.1 0.4,-0.1 0.1,0 0.2,0 0.4,-0.1 h 0.2 0.2 c 0.1,0 0.2,0 0.4,-0.1 0.1,0 0.3,0 0.4,-0.1 0.1,0 0.3,0 0.4,0 0.1,0 0.2,0 0.3,0 h 0.2 0.1 0.1 c 0.1,0 0.3,0 0.4,0 h 0.2 c 0,0 0.1,0 0,0 v 0 h 0.1 c 0.1,0 0.2,0 0.4,0 0.5,0 0.9,0 1.4,0 0.9,0 1.8,0.1 2.7,0.3 1.8,0.3 3.4,0.9 4.9,1.6 1.5,0.7 2.9,1.6 4,2.6 0.1,0.1 0.1,0.1 0.2,0.2 0.1,0.1 0.1,0.1 0.2,0.2 0.1,0.1 0.3,0.3 0.4,0.4 0.1,0.1 0.3,0.3 0.4,0.4 0.1,0.1 0.3,0.3 0.4,0.4 0.5,0.5 1,1.1 1.4,1.6 0.8,1.1 1.5,2.1 2,3.2 0,0.1 0.1,0.1 0.1,0.2 0,0.1 0.1,0.1 0.1,0.2 0.1,0.1 0.1,0.3 0.2,0.4 0.1,0.1 0.1,0.2 0.2,0.4 0.1,0.1 0.1,0.2 0.2,0.4 0.2,0.5 0.4,0.9 0.5,1.4 0.2,0.7 0.4,1.3 0.6,1.9 0.1,0.2 0.3,0.4 0.5,0.3 0.2,0 0.4,-0.2 0.4,-0.4 -0.2,-1.1 -0.2,-1.8 -0.3,-2.6 z"
   id="path3778"
   inkscape:connector-curvature="0"
   style="fill:url(#SVGID_1_)" />
</svg>