<?xml version="1.0" encoding="utf-8"?>
<!-- Generator: Adobe Illustrator 20.1.0, SVG Export Plug-In . SVG Version: 6.00 Build 0)  -->
<svg version="1.1" id="Layer_1" xmlns="http://www.w3.org/2000/svg" xmlns:xlink="http://www.w3.org/1999/xlink" x="0px" y="0px"
	 width="244.5px" height="57.8px" viewBox="0 0 244.5 57.8" style="enable-background:new 0 0 244.5 57.8;" xml:space="preserve">
<style type="text/css">
	.st0{fill:#E6E7E8;}
	.st1{fill:url(#SVGID_1_);}
</style>
<path class="st0" d="M99.9,31.2c-0.4,10.1-8.3,17.9-18.2,17.9c-10.4,0-18.2-8.4-18.2-18.6c0-10.3,8.4-18.7,18.6-18.7
	c4.6,0,9.1,2,13,5.6l-3,3.7c-2.9-2.5-6.5-4.3-10-4.3c-7.5,0-13.7,6.2-13.7,13.8c0,7.7,5.8,13.7,13.2,13.7c6.7,0,11.9-4.9,12.9-11.1
	h-15v-4.4h20.4C99.9,28.8,99.9,31.2,99.9,31.2z M117.3,28.7h-2.8c-3.1,0-5.6,2.5-5.6,5.6v14.5h-5V24h4.1v2.1
	c1.3-1.3,3.5-2.1,5.9-2.1h5.4L117.3,28.7z M144.4,48.8h-4.2v-3.1c-3.3,3.2-8.4,4.7-13.6,2.4c-3.9-1.7-6.7-5.2-7.5-9.4
	c-1.5-8,4.7-15.2,12.6-15.2c3.3,0,6.3,1.3,8.5,3.5v-3h4.3v24.8L144.4,48.8z M139.3,38.2c1.2-5.1-2.7-9.6-7.6-9.6
	c-4.3,0-7.8,3.5-7.8,7.8c0,4.8,4.3,8.6,9.2,7.7C136.1,43.6,138.6,41.2,139.3,38.2L139.3,38.2z M154.4,22.6V24h7.9v4.4h-7.9v20.5
	h-4.9V22.7c0-5.5,3.9-8.7,8.8-8.7h6l-2,4.7h-4C156.1,18.7,154.4,20.4,154.4,22.6L154.4,22.6z M188.6,48.8h-4.2v-3.1
	c-3.3,3.2-8.4,4.7-13.6,2.4c-3.9-1.7-6.7-5.2-7.5-9.4c-1.5-8,4.7-15.2,12.6-15.2c3.3,0,6.3,1.3,8.5,3.5v-3h4.3v24.8L188.6,48.8z
	 M183.5,38.2c1.2-5.1-2.7-9.6-7.6-9.6c-4.3,0-7.8,3.5-7.8,7.8c0,4.8,4.3,8.6,9.2,7.7C180.3,43.6,182.8,41.2,183.5,38.2L183.5,38.2z
	 M215.2,34.1v14.7h-5V34.1c0-3.1-2.5-5.6-5.6-5.6S199,31,199,34.1v14.7h-5V24h4.1v2.1c1.8-1.6,4.2-2.5,6.7-2.5
	C210.6,23.6,215.2,28.3,215.2,34.1L215.2,34.1z M244.4,48.8h-4.2v-3.1c-3.3,3.2-8.4,4.7-13.6,2.4c-3.9-1.7-6.7-5.2-7.5-9.4
	c-1.5-8,4.7-15.2,12.6-15.2c3.3,0,6.3,1.3,8.5,3.5v-3h4.3v24.8L244.4,48.8z M239.3,38.2c1.2-5.1-2.7-9.6-7.6-9.6
	c-4.3,0-7.8,3.5-7.8,7.8c0,4.8,4.3,8.6,9.2,7.7C236.1,43.6,238.6,41.2,239.3,38.2L239.3,38.2z"/>
<linearGradient id="SVGID_1_" gradientUnits="userSpaceOnUse" x1="26.7" y1="-9.8502" x2="26.7" y2="43.166" gradientTransform="matrix(1 0 0 -1 0 60)">
	<stop  offset="0" style="stop-color:#FFF100"/>
	<stop  offset="1" style="stop-color:#F05A28"/>
</linearGradient>
<path class="st1" d="M53.1,25.5c-0.1-1-0.3-2.1-0.6-3.3c-0.3-1.2-0.8-2.6-1.5-4s-1.6-2.9-2.8-4.3c-0.5-0.6-1-1.1-1.5-1.6
	c0.8-3.2-1-6-1-6c-3.1-0.2-5.1,1-5.8,1.5c-0.1-0.1-0.2-0.1-0.4-0.2c-0.5-0.2-1-0.4-1.6-0.6s-1.1-0.3-1.7-0.5
	c-0.6-0.1-1.2-0.3-1.8-0.3c-0.1,0-0.2,0-0.3,0C32.8,1.8,28.9,0,28.9,0c-4.3,2.8-5.2,6.6-5.2,6.6s0,0.1,0,0.2C23.5,6.9,23.2,6.9,23,7
	c-0.3,0.1-0.7,0.2-1,0.3c-0.3,0.1-0.7,0.3-1,0.4c-0.7,0.3-1.3,0.6-1.9,1c-0.6,0.3-1.2,0.7-1.8,1.1c-0.1,0-0.2-0.1-0.2-0.1
	c-6-2.3-11.4,0.5-11.4,0.5c-0.5,6.4,2.4,10.4,3,11.2c-0.1,0.4-0.3,0.8-0.4,1.2c-0.4,1.4-0.8,2.9-1,4.5c0,0.2-0.1,0.4-0.1,0.7
	C1.6,30.5,0,36.2,0,36.2c4.6,5.3,10,5.7,10,5.7l0,0c0.7,1.2,1.5,2.4,2.4,3.5c0.4,0.5,0.8,0.9,1.2,1.3c-1.7,4.8,0.2,8.9,0.2,8.9
	c5.2,0.2,8.6-2.3,9.3-2.8c0.5,0.2,1,0.3,1.6,0.5c1.6,0.4,3.2,0.6,4.8,0.7c0.4,0,0.8,0,1.2,0h0.2H31h0.3h0.3l0,0c2.4,3.5,6.7,4,6.7,4
	c3.4-3.6,3.2-7.2,3.2-7.2l-0.1-0.1c0.7-0.5,1.3-1,1.9-1.5c1.2-1.1,2.3-2.4,3.2-3.7c0.1-0.1,0.2-0.3,0.2-0.4c3.4,0.2,5.9-2.1,5.9-2.1
	c-0.6-4-3.1-5.7-3.1-5.7h-0.1c0-0.2,0-0.5,0.1-0.7c0-0.4,0-0.8,0-1.2v-0.3V35v-0.1c0-0.1,0-0.1,0-0.1v-0.2v-0.3c0-0.1,0-0.2,0-0.3
	s0-0.2,0-0.3v-0.3v-0.3c-0.1-0.4-0.1-0.8-0.2-1.2c-0.4-1.5-1-3-1.8-4.3s-1.8-2.5-2.9-3.5c-1.1-1-2.4-1.8-3.7-2.4s-2.7-1-4.1-1.1
	c-0.7-0.1-1.4-0.1-2-0.1h-0.3h-0.1h-0.1h-0.1h-0.3c-0.1,0-0.2,0-0.3,0c-0.3,0-0.7,0.1-1,0.1c-1.4,0.3-2.7,0.7-3.8,1.4
	c-1.1,0.7-2.1,1.5-2.9,2.5s-1.4,2-1.9,3.1c-0.4,1.1-0.7,2.2-0.7,3.3c0,0.3,0,0.6,0,0.8c0,0.1,0,0.1,0,0.2v0.2c0,0.1,0,0.3,0,0.4
	c0.1,0.6,0.2,1.1,0.3,1.6c0.3,1,0.8,2,1.4,2.8s1.3,1.5,2.1,2c0.8,0.5,1.6,0.9,2.4,1.1c0.8,0.2,1.6,0.3,2.3,0.3c0.1,0,0.2,0,0.3,0
	h0.1h0.1c0.1,0,0.2,0,0.2,0s0,0,0.1,0h0.1h0.1c0.1,0,0.2,0,0.3,0s0.2,0,0.3-0.1c0.2,0,0.3-0.1,0.5-0.1c0.3-0.1,0.6-0.2,0.9-0.4
	c0.3-0.1,0.5-0.3,0.8-0.5c0.1-0.1,0.1-0.1,0.2-0.2c0.3-0.2,0.3-0.6,0.1-0.8s-0.5-0.3-0.7-0.1C35,37.9,35,38,34.9,38
	c-0.2,0.1-0.4,0.2-0.7,0.3c-0.2,0.1-0.5,0.1-0.8,0.2c-0.1,0-0.3,0-0.4,0c-0.1,0-0.1,0-0.2,0c-0.1,0-0.1,0-0.2,0c-0.1,0-0.1,0-0.2,0
	c-0.1,0-0.2,0-0.2,0l0,0l0,0h-0.1H32c-0.1,0-0.1,0-0.2,0c-0.6-0.1-1.2-0.3-1.7-0.5c-0.6-0.3-1.1-0.6-1.6-1.1c-0.5-0.4-0.9-1-1.3-1.6
	c-0.3-0.6-0.6-1.3-0.7-2c-0.1-0.3-0.1-0.7-0.1-1.1c0-0.1,0-0.2,0-0.3l0,0l0,0v-0.1v-0.1c0-0.2,0-0.4,0.1-0.6c0.3-1.5,1-3,2.2-4.2
	c0.3-0.3,0.6-0.5,1-0.8c0.3-0.2,0.7-0.4,1.1-0.6s0.8-0.3,1.2-0.4c0.4-0.1,0.8-0.2,1.2-0.2c0.2,0,0.4,0,0.6,0c0.1,0,0.1,0,0.1,0h0.2
	h0.1l0,0l0,0h0.2c0.5,0,0.9,0.1,1.4,0.2c0.9,0.2,1.8,0.5,2.6,1c1.6,0.9,3,2.3,3.9,4c0.4,0.8,0.7,1.8,0.9,2.7c0,0.2,0.1,0.5,0.1,0.7
	v0.2v0.2c0,0.1,0,0.1,0,0.2c0,0.1,0,0.1,0,0.2v0.2v0.2c0,0.1,0,0.3,0,0.4c0,0.3,0,0.5-0.1,0.8c0,0.3-0.1,0.5-0.1,0.8
	C43,36.8,43,37,42.9,37.3c-0.1,0.5-0.3,1-0.5,1.5c-0.4,1-0.9,1.9-1.5,2.7c-1.2,1.7-2.9,3.1-4.8,3.9c-1,0.4-2,0.7-3,0.9
	c-0.5,0.1-1,0.1-1.6,0.2h-0.1h-0.1h-0.2h-0.3h-0.1c0.1,0,0,0,0,0h-0.1c-0.3,0-0.6,0-0.8,0c-1.1-0.1-2.2-0.3-3.3-0.6
	c-1.1-0.3-2.1-0.7-3.1-1.2c-2-1-3.7-2.5-5.1-4.2c-0.7-0.9-1.3-1.8-1.8-2.8s-0.9-2-1.2-3s-0.5-2.1-0.5-3.2v-0.2v-0.1l0,0v-0.1v-0.2
	l0,0v-0.1v-0.1v-0.3l0,0l0,0v-0.1c0-0.1,0-0.3,0-0.4c0-0.5,0.1-1.1,0.1-1.6c0.1-0.5,0.2-1.1,0.3-1.6s0.2-1.1,0.4-1.6
	c0.3-1.1,0.7-2.1,1.1-3.1c0.9-2,2.1-3.7,3.5-5.1c0.4-0.3,0.7-0.7,1.1-1c0.4-0.3,0.8-0.6,1.2-0.9c0.4-0.3,0.8-0.5,1.3-0.7
	c0.2-0.1,0.4-0.2,0.7-0.3c0.1,0,0.2-0.1,0.3-0.1c0.1-0.1,0.2-0.1,0.3-0.1c0.4-0.2,0.9-0.4,1.4-0.5c0.1,0,0.2-0.1,0.4-0.1
	c0.1,0,0.2-0.1,0.4-0.1c0.2-0.1,0.5-0.1,0.7-0.2c0.1,0,0.2-0.1,0.4-0.1c0.1,0,0.2-0.1,0.4-0.1c0.1,0,0.2,0,0.4-0.1h0.2h0.2
	c0.1,0,0.2,0,0.4-0.1c0.1,0,0.3,0,0.4-0.1c0.1,0,0.3,0,0.4,0s0.2,0,0.3,0h0.2h0.1h0.1c0.1,0,0.3,0,0.4,0h0.2c0,0,0.1,0,0,0l0,0h0.1
	c0.1,0,0.2,0,0.4,0c0.5,0,0.9,0,1.4,0c0.9,0,1.8,0.1,2.7,0.3c1.8,0.3,3.4,0.9,4.9,1.6c1.5,0.7,2.9,1.6,4,2.6
	c0.1,0.1,0.1,0.1,0.2,0.2c0.1,0.1,0.1,0.1,0.2,0.2c0.1,0.1,0.3,0.3,0.4,0.4c0.1,0.1,0.3,0.3,0.4,0.4c0.1,0.1,0.3,0.3,0.4,0.4
	c0.5,0.5,1,1.1,1.4,1.6c0.8,1.1,1.5,2.1,2,3.2c0,0.1,0.1,0.1,0.1,0.2s0.1,0.1,0.1,0.2c0.1,0.1,0.1,0.3,0.2,0.4
	c0.1,0.1,0.1,0.2,0.2,0.4c0.1,0.1,0.1,0.2,0.2,0.4c0.2,0.5,0.4,0.9,0.5,1.4c0.2,0.7,0.4,1.3,0.6,1.9c0.1,0.2,0.3,0.4,0.5,0.3
	c0.2,0,0.4-0.2,0.4-0.4C53.2,27,53.2,26.3,53.1,25.5z"/>
</svg>
